<?xml version="1.0" standalone="no"?>
<!DOCTYPE svg PUBLIC "-//W3C//DTD SVG 20010904//EN"
 "http://www.w3.org/TR/2001/REC-SVG-20010904/DTD/svg10.dtd">
<svg version="1.0" xmlns="http://www.w3.org/2000/svg"
 width="732.000000pt" height="739.000000pt" viewBox="0 0 732.000000 739.000000"
 preserveAspectRatio="xMidYMid meet">

<g transform="translate(0.000000,739.000000) scale(0.100000,-0.100000)"
fill="#000000" stroke="none">
<path d="M3450 7301 c0 -4 -60 -11 -132 -15 -73 -4 -134 -11 -136 -16 -2 -6
-17 -10 -34 -10 -51 0 -208 -23 -208 -31 0 -3 -27 -9 -60 -13 -33 -4 -60 -10
-60 -15 0 -4 -34 -13 -75 -20 -41 -7 -75 -16 -75 -21 0 -4 -18 -11 -40 -15
-22 -4 -40 -10 -40 -15 0 -4 -20 -11 -45 -14 -25 -4 -45 -11 -45 -15 0 -4 -25
-13 -55 -20 -30 -7 -55 -16 -55 -21 0 -4 -16 -11 -35 -14 -19 -4 -35 -10 -35
-14 0 -4 -20 -14 -45 -21 -25 -7 -45 -17 -45 -22 0 -4 -16 -11 -35 -15 -19 -3
-35 -10 -35 -14 0 -4 -18 -12 -40 -19 -22 -6 -40 -16 -40 -21 0 -4 -13 -11
-29 -15 -16 -3 -32 -13 -35 -21 -3 -8 -12 -14 -21 -14 -8 0 -15 -4 -15 -8 0
-4 -17 -14 -37 -21 -21 -8 -43 -19 -50 -25 -25 -22 -38 -31 -68 -46 -32 -16
-36 -19 -74 -50 -13 -11 -32 -22 -42 -25 -11 -4 -19 -11 -19 -16 0 -5 -7 -9
-15 -9 -9 0 -18 -7 -21 -15 -4 -8 -12 -15 -20 -15 -7 0 -18 -9 -24 -20 -6 -11
-17 -20 -25 -20 -9 0 -23 -9 -32 -20 -10 -11 -21 -20 -25 -20 -4 0 -21 -13
-36 -30 -16 -16 -33 -30 -37 -30 -4 0 -22 -16 -41 -35 -18 -19 -36 -35 -39
-35 -4 0 -40 -33 -80 -72 -41 -40 -86 -85 -102 -100 -15 -14 -44 -45 -63 -68
-19 -22 -57 -65 -85 -95 -61 -65 -99 -112 -104 -128 -2 -6 -17 -23 -33 -37
-15 -13 -28 -29 -28 -35 0 -6 -9 -18 -20 -28 -11 -9 -20 -23 -20 -32 0 -8 -9
-19 -20 -25 -11 -6 -20 -17 -20 -24 0 -7 -9 -24 -20 -37 -31 -38 -34 -42 -50
-74 -8 -16 -21 -34 -27 -38 -7 -4 -13 -14 -13 -21 0 -7 -9 -23 -20 -36 -11
-13 -20 -29 -20 -37 0 -7 -4 -13 -9 -13 -5 0 -15 -16 -22 -35 -7 -19 -16 -35
-20 -35 -4 0 -10 -14 -14 -31 -4 -17 -13 -33 -20 -36 -8 -2 -17 -18 -20 -34
-4 -16 -10 -29 -14 -29 -4 0 -13 -18 -20 -40 -6 -22 -16 -40 -21 -40 -6 0 -10
-8 -10 -17 0 -24 -23 -83 -32 -83 -4 0 -10 -16 -14 -35 -3 -19 -10 -35 -14
-35 -4 0 -13 -22 -20 -50 -7 -27 -16 -50 -20 -50 -4 0 -13 -29 -20 -65 -7 -36
-16 -65 -20 -65 -5 0 -11 -18 -15 -40 -4 -22 -10 -40 -15 -40 -4 0 -13 -34
-21 -75 -7 -41 -16 -75 -20 -75 -4 0 -13 -40 -20 -90 -7 -49 -16 -90 -20 -90
-4 0 -10 -31 -14 -70 -4 -38 -10 -70 -14 -70 -9 0 -31 -236 -31 -322 0 -32 -4
-58 -10 -58 -6 0 -10 -80 -10 -220 0 -140 4 -220 10 -220 6 0 10 -26 10 -57 0
-89 22 -323 31 -323 4 0 11 -36 15 -80 3 -44 10 -80 14 -80 4 0 13 -36 20 -80
7 -44 16 -80 19 -80 4 0 14 -36 21 -80 7 -44 17 -80 21 -80 4 0 10 -18 14 -40
4 -22 10 -40 14 -40 4 0 13 -27 19 -60 7 -33 16 -60 21 -60 4 0 14 -25 21 -55
7 -30 17 -55 21 -55 5 0 11 -16 15 -35 3 -19 10 -35 14 -35 4 0 13 -20 20 -45
7 -25 16 -45 21 -45 4 0 14 -18 20 -40 7 -22 16 -40 20 -40 4 0 10 -14 14 -30
4 -17 10 -30 14 -30 4 0 14 -18 21 -40 7 -22 17 -40 21 -40 4 0 13 -16 20 -35
7 -19 17 -35 21 -35 4 0 8 -7 8 -15 0 -7 6 -18 14 -22 7 -4 19 -25 25 -45 7
-21 16 -38 21 -38 4 0 13 -15 21 -33 7 -17 19 -36 26 -40 7 -4 13 -12 13 -17
0 -6 8 -19 18 -29 33 -37 42 -51 52 -76 5 -14 14 -25 19 -25 5 0 14 -13 21
-30 7 -16 16 -30 21 -30 15 0 10 -27 -5 -33 -8 -3 -17 -19 -21 -36 -4 -17 -10
-31 -14 -31 -9 0 -31 -90 -31 -126 0 -13 -4 -24 -10 -24 -6 0 -10 -35 -10 -85
0 -50 4 -85 10 -85 6 0 10 -11 10 -24 0 -40 23 -130 37 -144 7 -7 13 -19 13
-26 0 -13 26 -50 53 -74 9 -9 17 -22 17 -28 0 -16 55 -71 79 -79 12 -3 21 -11
21 -16 0 -5 11 -14 25 -19 14 -5 25 -14 25 -19 0 -5 14 -12 30 -16 17 -4 30
-10 30 -14 0 -9 90 -31 126 -31 13 0 24 -4 24 -10 0 -6 33 -10 80 -10 47 0 80
4 80 10 0 6 11 10 24 10 36 0 126 22 126 31 0 4 14 10 30 14 16 4 30 11 30 16
0 5 11 14 25 19 14 5 25 14 25 20 0 5 6 10 13 10 7 0 20 8 29 18 9 9 28 28 42
41 14 13 26 29 26 37 0 8 4 14 9 14 5 0 14 13 21 30 7 16 16 30 21 30 5 0 9 6
9 14 0 8 6 21 13 28 14 14 37 104 37 144 0 13 5 24 10 24 6 0 10 37 10 90 0
50 -3 90 -8 90 -4 0 -13 30 -20 67 -7 37 -17 70 -22 73 -4 3 -12 18 -15 33 -4
15 -11 27 -16 27 -5 0 -9 6 -9 13 0 23 -118 157 -138 157 -6 0 -16 9 -22 20
-6 11 -17 20 -25 20 -8 0 -15 4 -15 9 0 5 -22 15 -50 22 -28 7 -50 16 -50 20
0 4 -20 11 -45 15 -25 3 -45 10 -45 15 0 5 -45 9 -100 9 -55 0 -100 -4 -100
-9 0 -5 -20 -12 -45 -15 -25 -4 -45 -11 -45 -15 0 -4 -21 -13 -47 -20 -36 -9
-49 -9 -52 0 -2 6 -12 19 -22 27 -11 9 -19 21 -19 27 0 6 -9 18 -20 28 -11 9
-20 24 -20 32 0 8 -5 15 -10 15 -6 0 -15 11 -20 25 -5 14 -13 25 -18 25 -4 0
-14 16 -21 35 -7 19 -16 35 -21 35 -4 0 -11 11 -14 25 -4 14 -10 25 -15 25 -5
0 -15 16 -21 35 -6 19 -15 35 -19 35 -4 0 -14 18 -21 40 -7 22 -16 40 -20 40
-3 0 -12 16 -20 35 -8 19 -17 35 -21 35 -4 0 -10 14 -14 30 -4 17 -10 30 -14
30 -4 0 -13 23 -20 50 -7 28 -16 50 -21 50 -4 0 -13 21 -19 46 -7 26 -18 53
-26 61 -8 8 -15 25 -15 39 0 13 -4 24 -8 24 -5 0 -15 25 -22 55 -7 30 -17 55
-21 55 -4 0 -13 32 -19 70 -6 39 -16 70 -21 70 -4 0 -11 23 -15 50 -4 28 -10
50 -14 50 -4 0 -13 41 -19 90 -7 50 -16 90 -20 90 -7 0 -31 191 -31 252 0 20
-6 38 -12 41 -17 5 -19 724 -2 735 6 4 16 65 23 137 7 71 16 132 20 135 4 3
14 47 21 98 7 50 16 92 20 92 4 0 11 20 14 45 4 25 11 45 15 45 4 0 13 34 20
75 8 41 17 75 21 75 4 0 13 25 20 55 7 30 16 55 20 55 4 0 11 16 14 35 4 19
10 35 15 35 4 0 13 23 20 50 7 28 16 50 20 50 9 0 31 60 31 83 0 9 4 17 9 17
5 0 12 11 15 25 4 14 10 25 15 25 5 0 15 16 21 35 6 19 15 35 19 35 5 0 14 20
21 44 7 25 18 47 25 50 7 2 16 18 20 34 3 17 13 33 21 36 8 3 14 12 14 21 0 8
4 15 9 15 5 0 15 15 22 33 7 17 21 41 31 51 10 11 18 25 18 32 0 6 7 14 15 18
8 3 15 12 15 21 0 8 5 15 10 15 6 0 15 11 20 25 5 13 16 32 25 42 9 10 31 36
50 57 19 21 35 42 35 47 0 5 18 26 40 48 22 22 40 42 40 45 0 3 8 15 17 27 31
36 243 249 249 249 3 0 22 16 42 35 83 78 114 105 123 105 5 0 19 11 31 25 12
14 27 25 34 25 6 0 14 7 18 15 3 8 10 15 16 15 6 0 16 5 23 10 47 39 62 50 78
55 11 4 19 11 19 16 0 5 7 9 15 9 9 0 18 6 21 13 3 8 20 20 39 27 19 8 35 17
35 22 0 4 6 8 13 8 8 0 24 9 37 20 13 11 34 23 47 26 13 4 23 10 23 14 0 5 14
11 30 15 17 4 30 11 30 16 0 5 11 11 25 15 14 3 25 10 25 15 0 4 18 13 40 19
22 6 40 15 40 20 0 4 14 11 30 15 17 4 30 10 30 15 0 4 23 13 50 20 28 7 50
16 50 20 0 5 18 11 40 15 22 4 40 10 40 14 0 4 25 13 55 20 30 7 55 16 55 21
0 5 20 12 45 16 25 3 45 10 45 15 0 4 23 11 50 15 28 4 50 10 50 14 0 5 41 14
90 21 50 6 90 15 90 20 0 4 35 11 78 14 42 4 79 11 82 15 7 11 299 30 469 30
168 0 464 -19 471 -30 3 -4 40 -11 83 -15 42 -4 77 -11 77 -16 0 -14 79 -11
95 4 78 66 80 69 80 133 0 44 -5 65 -17 78 -10 10 -18 22 -18 27 0 5 -6 9 -14
9 -8 0 -21 6 -29 14 -8 9 -56 20 -118 27 -57 7 -106 16 -109 20 -3 5 -67 11
-143 15 -75 4 -137 11 -137 16 0 4 -99 8 -220 8 -121 0 -220 -4 -220 -9z
m-1966 -5882 c22 -6 45 -16 52 -22 28 -25 40 -33 57 -40 11 -4 21 -16 24 -27
3 -11 9 -20 13 -20 4 0 13 -15 21 -32 7 -18 18 -36 23 -40 16 -10 14 -217 -1
-226 -6 -4 -15 -20 -18 -35 -4 -15 -12 -31 -19 -35 -6 -4 -17 -19 -25 -34 -7
-14 -24 -29 -37 -32 -12 -3 -30 -13 -39 -22 -8 -9 -33 -18 -55 -21 -22 -3 -40
-10 -40 -14 0 -5 -25 -9 -55 -9 -30 0 -55 4 -55 9 0 5 -18 11 -40 15 -22 3
-40 11 -40 16 0 6 -5 10 -12 10 -13 0 -108 95 -108 109 0 5 -5 11 -10 13 -6 2
-16 34 -22 72 -13 76 0 194 24 220 26 30 34 41 41 59 4 11 16 21 26 24 11 3
22 11 25 19 3 8 12 14 21 14 8 0 15 4 15 9 0 26 164 40 234 20z"/>
<path d="M4879 7037 c-8 -8 -24 -17 -36 -21 -14 -4 -25 -21 -33 -51 -18 -66
-8 -111 36 -153 33 -32 43 -36 89 -36 48 0 56 3 91 39 37 38 39 43 38 105 0
59 -4 69 -30 95 -23 24 -39 30 -85 33 -40 3 -60 0 -70 -11z"/>
<path d="M5820 6839 c-30 -5 -57 -13 -60 -18 -3 -5 -20 -12 -37 -16 -18 -3
-33 -10 -33 -14 0 -4 -16 -13 -35 -21 -19 -8 -35 -18 -35 -22 0 -5 -8 -12 -17
-15 -25 -10 -103 -92 -103 -109 0 -8 -5 -14 -10 -14 -6 0 -15 -11 -20 -25 -5
-14 -14 -25 -19 -25 -5 0 -15 -22 -22 -50 -7 -27 -16 -50 -21 -50 -4 0 -10
-22 -14 -50 -4 -27 -10 -50 -15 -50 -5 0 -9 -45 -9 -100 0 -55 4 -100 9 -100
5 0 12 -22 16 -50 4 -27 10 -50 15 -50 4 0 11 -16 14 -35 4 -19 12 -40 19 -47
7 -7 18 -25 24 -40 7 -16 17 -28 23 -28 5 0 10 -6 10 -12 0 -7 12 -24 25 -37
14 -13 25 -26 25 -30 0 -4 12 -14 27 -22 15 -8 39 -26 54 -41 15 -14 42 -29
58 -33 17 -4 31 -10 31 -15 0 -4 17 -11 37 -15 21 -4 41 -12 45 -18 10 -17
286 -17 296 0 4 6 25 15 47 19 22 4 46 13 53 21 17 17 42 17 42 0 0 -7 9 -20
20 -30 11 -9 20 -24 20 -32 0 -8 5 -15 10 -15 6 0 15 -11 20 -25 5 -14 14 -25
19 -25 5 0 14 -13 21 -30 7 -16 16 -30 21 -30 5 0 9 -7 9 -15 0 -9 6 -18 14
-21 8 -3 18 -19 21 -36 4 -16 13 -32 20 -35 8 -2 17 -18 20 -34 4 -16 12 -32
19 -36 7 -5 19 -26 26 -48 7 -22 19 -46 27 -53 7 -7 13 -20 13 -28 0 -8 4 -14
9 -14 5 0 15 -16 22 -35 7 -19 17 -35 21 -35 4 0 8 -8 8 -17 0 -24 23 -83 32
-83 4 0 10 -16 14 -35 3 -19 10 -35 14 -35 5 0 14 -22 21 -50 7 -27 16 -50 20
-50 4 0 11 -20 15 -45 3 -26 12 -52 19 -59 7 -7 16 -34 20 -59 4 -26 11 -47
15 -47 4 0 12 -31 19 -70 7 -38 16 -70 21 -70 4 0 13 -43 20 -95 7 -52 16 -95
20 -95 4 0 11 -37 15 -82 4 -46 11 -85 15 -88 11 -7 30 -319 30 -486 0 -164
-20 -467 -30 -474 -5 -3 -11 -42 -15 -88 -4 -45 -11 -82 -15 -82 -5 0 -14 -40
-21 -90 -6 -49 -15 -90 -19 -90 -3 0 -13 -36 -20 -80 -7 -44 -17 -80 -21 -80
-4 0 -10 -18 -14 -40 -4 -22 -10 -40 -14 -40 -4 0 -14 -25 -21 -55 -7 -30 -17
-55 -21 -55 -4 0 -13 -26 -20 -57 -7 -32 -19 -64 -26 -71 -7 -7 -13 -20 -13
-28 0 -8 -4 -14 -9 -14 -5 0 -15 -23 -22 -50 -7 -28 -16 -50 -19 -50 -3 0 -12
-16 -20 -35 -8 -19 -17 -35 -21 -35 -4 0 -10 -14 -14 -30 -4 -17 -10 -30 -14
-30 -4 0 -14 -18 -21 -40 -7 -22 -17 -40 -21 -40 -4 0 -13 -16 -19 -35 -6 -19
-15 -35 -20 -35 -4 0 -13 -14 -19 -30 -5 -17 -15 -30 -20 -30 -6 0 -11 -7 -11
-15 0 -7 -6 -18 -13 -22 -6 -4 -19 -21 -27 -38 -8 -16 -21 -36 -27 -43 -7 -7
-13 -20 -13 -27 0 -8 -9 -19 -20 -25 -11 -6 -20 -17 -20 -25 0 -8 -4 -15 -8
-15 -5 0 -15 -12 -23 -27 -8 -15 -26 -40 -41 -55 -16 -15 -28 -31 -28 -35 0
-5 -8 -16 -17 -25 -30 -28 -63 -66 -63 -73 0 -3 -52 -58 -115 -122 -63 -64
-115 -119 -115 -124 0 -4 -9 -11 -21 -14 -21 -7 -89 -73 -89 -86 0 -4 -11 -10
-25 -13 -13 -3 -29 -15 -35 -26 -6 -11 -15 -20 -20 -20 -6 0 -19 -9 -30 -20
-11 -11 -26 -20 -33 -20 -8 0 -20 -11 -27 -25 -7 -14 -20 -25 -27 -25 -7 0
-16 -7 -19 -15 -4 -8 -12 -15 -20 -15 -8 0 -23 -9 -33 -19 -10 -10 -28 -22
-40 -26 -12 -3 -21 -10 -21 -15 0 -4 -13 -13 -30 -19 -16 -5 -30 -14 -30 -19
0 -6 -11 -13 -25 -16 -14 -4 -25 -10 -25 -15 0 -5 -16 -15 -35 -21 -19 -6 -35
-15 -35 -20 0 -5 -13 -11 -30 -15 -16 -4 -30 -11 -30 -16 0 -5 -7 -9 -15 -9
-7 0 -18 -6 -22 -13 -10 -16 -58 -37 -83 -37 -11 0 -20 -4 -20 -10 0 -5 -11
-12 -25 -16 -14 -3 -25 -10 -25 -14 0 -5 -22 -14 -50 -21 -27 -7 -50 -16 -50
-20 0 -4 -16 -10 -35 -13 -19 -4 -35 -10 -35 -14 0 -8 -71 -32 -95 -32 -8 0
-15 -4 -15 -9 0 -5 -18 -12 -40 -16 -22 -4 -40 -10 -40 -15 0 -4 -20 -11 -45
-14 -25 -4 -45 -11 -45 -15 0 -4 -38 -14 -85 -21 -47 -7 -85 -17 -85 -21 0 -4
-33 -10 -72 -14 -40 -4 -75 -11 -78 -15 -6 -9 -210 -30 -288 -30 -29 0 -52 -4
-52 -10 0 -6 -77 -10 -210 -10 -133 0 -210 4 -210 10 0 6 -23 10 -52 10 -84 0
-283 22 -289 32 -8 13 -168 15 -177 2 -4 -6 -15 -14 -25 -17 -11 -4 -21 -16
-24 -27 -3 -11 -9 -20 -14 -20 -5 0 -9 -27 -9 -60 0 -54 3 -63 34 -95 34 -35
88 -54 154 -55 17 0 32 -4 32 -9 0 -5 44 -12 98 -16 53 -4 100 -13 104 -19 10
-16 756 -16 766 0 4 6 47 14 97 18 49 4 92 11 95 15 3 4 53 14 113 21 59 7
107 16 107 21 0 4 25 11 55 14 30 4 55 11 55 15 0 4 29 13 65 20 36 7 65 16
65 20 0 5 23 11 50 15 28 4 50 11 50 15 0 5 16 12 35 16 19 3 35 10 35 14 0 4
25 13 55 20 30 7 55 17 55 21 0 5 16 11 35 15 19 3 35 10 35 14 0 4 18 13 40
20 22 7 40 16 40 20 0 4 16 11 35 14 19 4 35 10 35 15 0 4 18 14 40 21 22 7
40 17 40 22 0 4 7 8 15 8 9 0 18 6 21 14 3 8 19 18 35 21 16 4 29 10 29 15 0
4 10 10 23 14 13 3 34 15 47 26 13 11 29 20 37 20 7 0 13 4 13 9 0 5 8 12 19
16 10 3 29 14 42 25 38 31 42 34 74 50 17 8 34 21 38 27 4 7 12 13 17 13 5 0
24 13 42 30 56 51 68 60 76 60 4 0 18 12 31 25 13 14 29 25 35 25 7 0 18 11
25 24 7 13 25 30 40 37 26 14 81 68 81 80 0 3 11 11 24 18 13 7 29 24 36 36 7
13 25 29 41 35 16 7 31 21 34 31 4 11 44 58 91 104 46 47 84 89 84 93 0 4 18
28 40 52 21 25 46 53 55 63 9 10 21 29 27 42 6 14 15 25 20 25 5 0 14 13 19
29 6 16 17 32 25 35 8 3 14 12 14 21 0 8 5 15 10 15 6 0 15 11 20 25 5 14 14
25 19 25 5 0 11 10 15 23 3 13 15 34 26 47 11 13 20 29 20 35 0 7 6 15 14 18
8 3 17 19 21 35 3 17 12 33 20 35 7 3 16 19 20 36 4 17 11 31 16 31 5 0 9 6 9
13 0 8 9 24 19 36 11 13 23 36 26 52 4 16 11 29 15 29 5 0 15 18 21 40 7 22
15 40 19 40 4 0 11 16 14 35 4 19 11 35 16 35 4 0 14 23 21 50 7 27 16 50 20
50 4 0 12 23 19 50 7 28 16 50 20 50 5 0 11 18 15 40 4 22 10 40 14 40 4 0 13
29 20 65 7 36 17 65 21 65 5 0 14 32 20 70 6 39 15 70 20 70 4 0 11 25 15 55
3 30 10 55 14 55 5 0 14 51 21 113 7 61 16 114 20 117 9 6 30 223 30 309 0 34
4 61 10 61 6 0 10 78 10 215 0 137 -4 215 -10 215 -5 0 -10 26 -10 57 0 87
-22 333 -30 333 -4 0 -13 47 -20 105 -6 58 -16 105 -20 105 -5 0 -12 25 -15
55 -4 30 -10 55 -14 55 -4 0 -14 36 -21 80 -7 44 -17 80 -20 80 -4 0 -13 27
-20 60 -7 33 -16 60 -21 60 -4 0 -11 16 -15 35 -3 19 -10 35 -14 35 -4 0 -10
12 -13 28 -13 63 -21 87 -32 99 -7 6 -15 30 -19 52 -3 23 -11 41 -16 41 -5 0
-12 11 -16 25 -3 14 -10 25 -14 25 -4 0 -13 20 -20 45 -7 25 -16 45 -21 45 -4
0 -14 18 -20 40 -7 22 -16 40 -20 40 -4 0 -10 13 -14 29 -3 16 -12 32 -20 34
-7 3 -16 19 -20 36 -4 17 -10 31 -14 31 -4 0 -13 16 -21 35 -8 19 -17 35 -22
35 -4 0 -8 7 -8 15 0 9 -6 18 -13 21 -8 3 -20 20 -27 39 -8 19 -17 35 -21 35
-3 0 -12 13 -19 29 -6 16 -18 32 -26 35 -8 3 -14 12 -14 21 0 8 -5 15 -11 15
-5 0 -15 14 -20 30 -6 17 -15 30 -20 30 -5 0 -14 11 -19 25 -5 14 -14 25 -20
25 -5 0 -10 7 -10 15 0 8 4 15 9 15 5 0 14 15 22 33 7 17 17 35 21 38 4 3 14
40 20 82 7 42 16 77 20 77 5 0 8 38 8 85 0 50 -4 85 -10 85 -5 0 -10 11 -10
24 0 36 -22 126 -31 126 -4 0 -10 14 -14 31 -4 17 -13 33 -21 36 -8 3 -14 11
-14 17 0 7 -9 22 -20 34 -11 12 -20 24 -20 27 0 10 -54 65 -63 65 -4 0 -18 10
-30 23 -12 12 -35 29 -52 37 -16 8 -36 21 -43 28 -7 6 -24 12 -37 12 -13 0
-25 4 -27 9 -9 26 -209 38 -318 20z m239 -287 c3 -5 17 -13 30 -17 29 -9 121
-100 121 -120 0 -7 5 -15 10 -17 6 -2 16 -31 22 -66 13 -68 -1 -203 -21 -210
-6 -2 -11 -9 -11 -15 0 -7 -11 -25 -25 -41 -14 -16 -25 -33 -25 -38 0 -4 -7
-8 -15 -8 -9 0 -18 -6 -21 -14 -3 -8 -28 -20 -55 -27 -27 -7 -49 -16 -49 -21
0 -4 -31 -8 -70 -8 -38 0 -70 4 -70 9 0 5 -15 12 -34 15 -18 4 -43 14 -54 24
-11 9 -32 26 -46 36 -14 10 -26 24 -26 31 0 7 -6 15 -14 18 -7 3 -17 18 -21
34 -3 15 -12 31 -18 35 -16 10 -16 206 -1 216 6 4 17 24 23 45 7 20 16 37 21
37 5 0 12 9 15 20 3 11 13 20 21 20 8 0 17 7 20 15 3 8 21 20 40 27 19 6 34
15 34 19 0 19 207 20 219 1z"/>
<path d="M3465 6229 c-800 -83 -1501 -518 -1927 -1196 -291 -463 -428 -1035
-378 -1578 57 -610 319 -1166 751 -1592 401 -396 874 -631 1449 -720 142 -21
528 -25 665 -5 601 86 1095 330 1502 743 207 209 342 398 472 660 300 601 352
1281 149 1918 -123 386 -330 726 -621 1020 -399 404 -893 653 -1462 737 -123
18 -478 26 -600 13z m438 -925 c347 -71 631 -359 702 -713 26 -127 17 -327
-20 -441 -100 -309 -315 -522 -622 -617 -81 -25 -102 -27 -253 -27 -151 0
-172 2 -253 27 -306 94 -522 308 -622 617 -37 114 -46 314 -20 441 35 176 119
334 246 461 225 226 527 316 842 252z m132 -2198 c344 -62 608 -176 889 -384
93 -69 336 -301 336 -322 0 -18 -228 -239 -318 -308 -386 -296 -824 -436
-1307 -419 -419 15 -797 149 -1138 405 -92 68 -337 302 -337 320 0 16 158 177
248 253 178 149 362 260 562 339 120 48 328 103 445 119 44 6 94 13 110 15 70
10 424 -3 510 -18z"/>
<path d="M2390 611 c0 -5 -15 -12 -33 -15 -23 -4 -38 -15 -48 -34 -8 -15 -18
-30 -24 -34 -5 -4 -9 -32 -9 -64 1 -41 6 -59 18 -66 9 -5 16 -16 16 -23 0 -8
7 -15 15 -15 9 0 18 -7 21 -15 7 -17 114 -22 114 -5 0 6 6 10 13 10 29 1 60
51 65 106 5 57 -12 114 -33 114 -7 0 -15 7 -19 15 -3 8 -17 15 -31 15 -14 0
-25 5 -25 10 0 6 -9 10 -20 10 -11 0 -20 -4 -20 -9z"/>
</g>
</svg>
