<?xml version="1.0" standalone="no"?>
<!DOCTYPE svg PUBLIC "-//W3C//DTD SVG 20010904//EN"
 "http://www.w3.org/TR/2001/REC-SVG-20010904/DTD/svg10.dtd">
<svg version="1.0" xmlns="http://www.w3.org/2000/svg"
 width="512.000000pt" height="512.000000pt" viewBox="0 0 512.000000 512.000000"
 preserveAspectRatio="xMidYMid meet">

<g transform="translate(0.000000,512.000000) scale(0.100000,-0.100000)"
fill="#000000" stroke="none">
<path d="M2193 4360 c-39 -23 -42 -36 -46 -168 l-2 -103 -93 -31 c-51 -17
-136 -52 -188 -77 l-94 -47 -72 73 c-78 79 -113 99 -155 88 -39 -9 -499 -468
-513 -511 -16 -47 5 -86 87 -167 l69 -68 -47 -97 c-26 -53 -61 -137 -78 -187
l-30 -90 -120 -5 c-180 -7 -165 27 -169 -392 -2 -239 1 -350 9 -370 19 -47 47
-57 169 -60 l112 -3 32 -96 c18 -53 53 -137 78 -187 l45 -90 -73 -73 c-80 -79
-100 -114 -89 -156 9 -39 468 -499 511 -513 47 -16 86 5 168 88 l69 70 81 -41
c45 -22 128 -57 186 -78 l105 -37 2 -103 c4 -133 7 -146 46 -169 30 -19 52
-20 367 -20 432 0 408 -11 413 189 l2 103 106 37 c58 21 142 56 186 78 l81 41
68 -70 c82 -83 121 -104 168 -88 43 14 502 474 511 513 11 42 -9 77 -89 156
l-73 73 45 90 c25 50 60 134 78 187 l32 96 112 3 c122 3 150 13 169 60 8 20
11 131 9 370 -4 419 11 385 -169 392 l-120 5 -30 90 c-17 50 -52 134 -78 187
l-47 97 69 68 c82 81 103 120 87 167 -14 43 -474 502 -513 511 -42 11 -77 -9
-155 -88 l-72 -73 -94 47 c-52 25 -137 60 -188 77 l-93 31 -2 103 c-4 132 -7
145 -46 168 -30 19 -52 20 -367 20 -315 0 -337 -1 -367 -20z m127 -425 c-13
-14 -27 -25 -32 -25 -9 0 42 49 51 50 3 0 -6 -11 -19 -25z m513 -24 c-2 -3
-16 8 -31 24 l-27 28 31 -24 c17 -13 30 -26 27 -28z m-566 -7 c-3 -3 -12 -4
-19 -1 -8 3 -5 6 6 6 11 1 17 -2 13 -5z m690 -20 c-3 -3 -12 -4 -19 -1 -8 3
-5 6 6 6 11 1 17 -2 13 -5z m-1397 -37 c0 -1 -66 -67 -147 -147 l-148 -145
145 148 c134 137 150 152 150 144z m152 -137 c-1 -2 -35 29 -75 70 l-72 74 75
-69 c42 -39 74 -72 72 -75z m1773 70 c-38 -38 -72 -70 -76 -70 -7 0 133 140
141 140 2 0 -27 -31 -65 -70z m225 -75 c80 -80 142 -145 140 -145 -3 0 -70 65
-150 145 -80 80 -142 145 -140 145 3 0 70 -65 150 -145z m-1700 115 c-8 -5
-19 -10 -25 -10 -5 0 -3 5 5 10 8 5 20 10 25 10 6 0 3 -5 -5 -10z m1120 0 c8
-5 11 -10 5 -10 -5 0 -17 5 -25 10 -8 5 -10 10 -5 10 6 0 17 -5 25 -10z
m-1220 -45 c0 -2 -13 -11 -30 -20 -38 -19 -40 -11 -2 9 31 17 32 18 32 11z
m1360 -31 c0 -2 -13 2 -30 11 -16 9 -30 18 -30 21 0 2 14 -2 30 -11 17 -9 30
-18 30 -21z m-1492 -41 c-10 -2 -26 -2 -35 0 -10 3 -2 5 17 5 19 0 27 -2 18
-5z m1600 0 c-10 -2 -26 -2 -35 0 -10 3 -2 5 17 5 19 0 27 -2 18 -5z m-1977
-280 c13 -16 12 -17 -3 -4 -10 7 -18 15 -18 17 0 8 8 3 21 -13z m16 -75 c-2
-13 -4 -5 -4 17 -1 22 1 32 4 23 2 -10 2 -28 0 -40z m2290 0 c-2 -13 -4 -5 -4
17 -1 22 1 32 4 23 2 -10 2 -28 0 -40z m-1204 35 c-7 -2 -21 -2 -30 0 -10 3
-4 5 12 5 17 0 24 -2 18 -5z m150 0 c-7 -2 -21 -2 -30 0 -10 3 -4 5 12 5 17 0
24 -2 18 -5z m-236 -9 c-3 -3 -12 -4 -19 -1 -8 3 -5 6 6 6 11 1 17 -2 13 -5z
m310 0 c-3 -3 -12 -4 -19 -1 -8 3 -5 6 6 6 11 1 17 -2 13 -5z m-390 -20 c-3
-3 -12 -4 -19 -1 -8 3 -5 6 6 6 11 1 17 -2 13 -5z m-947 -74 c-6 -11 -13 -20
-16 -20 -2 0 0 9 6 20 6 11 13 20 16 20 2 0 0 -9 -6 -20z m2350 0 c6 -11 8
-20 6 -20 -3 0 -10 9 -16 20 -6 11 -8 20 -6 20 3 0 10 -9 16 -20z m-1580 5 c0
-2 -10 -9 -22 -15 -22 -11 -22 -10 -4 4 21 17 26 19 26 11z m840 -21 c0 -2 -9
0 -20 6 -11 6 -20 13 -20 16 0 2 9 0 20 -6 11 -6 20 -13 20 -16z m-1640 -34
c-6 -11 -13 -20 -16 -20 -2 0 0 9 6 20 6 11 13 20 16 20 2 0 0 -9 -6 -20z
m2410 0 c6 -11 8 -20 6 -20 -3 0 -10 9 -16 20 -6 11 -8 20 -6 20 3 0 10 -9 16
-20z m-1690 6 c0 -2 -8 -10 -17 -17 -16 -13 -17 -12 -4 4 13 16 21 21 21 13z
m981 -13 c13 -16 12 -17 -3 -4 -10 7 -18 15 -18 17 0 8 8 3 21 -13z m-1021
-16 c0 -1 -30 -32 -67 -67 l-68 -65 65 68 c60 62 70 72 70 64z m1110 -62 c35
-36 62 -65 59 -65 -2 0 -34 29 -69 65 -35 36 -62 65 -59 65 2 0 34 -29 69 -65z
m-440 23 c93 -21 211 -89 286 -163 127 -125 186 -267 186 -445 0 -175 -59
-319 -181 -441 -122 -122 -266 -181 -441 -181 -178 0 -320 59 -445 186 -77 78
-142 194 -166 296 -16 71 -16 209 0 280 24 102 89 218 166 296 159 161 374
223 595 172z m-1409 -55 c-12 -20 -14 -14 -5 12 4 9 9 14 11 11 3 -2 0 -13 -6
-23z m2529 -8 c0 -5 -5 -3 -10 5 -5 8 -10 20 -10 25 0 6 5 3 10 -5 5 -8 10
-19 10 -25z m-1920 -39 c0 -2 -8 -10 -17 -17 -16 -13 -17 -12 -4 4 13 16 21
21 21 13z m1321 -13 c13 -16 12 -17 -3 -4 -17 13 -22 21 -14 21 2 0 10 -8 17
-17z m-1381 -73 c-6 -11 -13 -20 -16 -20 -2 0 0 9 6 20 6 11 13 20 16 20 2 0
0 -9 -6 -20z m1430 0 c6 -11 8 -20 6 -20 -3 0 -10 9 -16 20 -6 11 -8 20 -6 20
3 0 10 -9 16 -20z m-2053 -82 c-3 -8 -6 -5 -6 6 -1 11 2 17 5 13 3 -3 4 -12 1
-19z m2670 0 c-3 -8 -6 -5 -6 6 -1 11 2 17 5 13 3 -3 4 -12 1 -19z m-2680 -40
c-3 -8 -6 -5 -6 6 -1 11 2 17 5 13 3 -3 4 -12 1 -19z m2690 0 c-3 -8 -6 -5 -6
6 -1 11 2 17 5 13 3 -3 4 -12 1 -19z m-2722 -56 l-28 -27 24 31 c13 17 26 30
28 27 3 -2 -8 -16 -24 -31z m2755 3 l25 -30 -27 24 c-16 14 -28 29 -28 34 0 6
1 8 3 6 1 -2 13 -17 27 -34z m-2173 -17 c-3 -8 -6 -5 -6 6 -1 11 2 17 5 13 3
-3 4 -12 1 -19z m1590 0 c-3 -8 -6 -5 -6 6 -1 11 2 17 5 13 3 -3 4 -12 1 -19z
m-2410 -115 c-2 -21 -4 -6 -4 32 0 39 2 55 4 38 2 -18 2 -50 0 -70z m800 35
c-3 -8 -6 -5 -6 6 -1 11 2 17 5 13 3 -3 4 -12 1 -19z m1630 0 c-3 -8 -6 -5 -6
6 -1 11 2 17 5 13 3 -3 4 -12 1 -19z m-1640 -85 c-3 -10 -5 -4 -5 12 0 17 2
24 5 18 2 -7 2 -21 0 -30z m1650 -10 c-3 -10 -5 -2 -5 17 0 19 2 27 5 18 2
-10 2 -26 0 -35z m0 -140 c-3 -10 -5 -2 -5 17 0 19 2 27 5 18 2 -10 2 -26 0
-35z m-1650 0 c-3 -10 -5 -4 -5 12 0 17 2 24 5 18 2 -7 2 -21 0 -30z m1640
-75 c-3 -7 -5 -2 -5 12 0 14 2 19 5 13 2 -7 2 -19 0 -25z m-1630 0 c-3 -8 -6
-5 -6 6 -1 11 2 17 5 13 3 -3 4 -12 1 -19z m20 -80 c-3 -8 -6 -5 -6 6 -1 11 2
17 5 13 3 -3 4 -12 1 -19z m1590 0 c-3 -8 -6 -5 -6 6 -1 11 2 17 5 13 3 -3 4
-12 1 -19z m-2149 -33 c-3 -3 -9 2 -12 12 -6 14 -5 15 5 6 7 -7 10 -15 7 -18z
m2715 10 c-3 -9 -8 -14 -10 -11 -3 3 -2 9 2 15 9 16 15 13 8 -4z m-602 -72
c-12 -20 -14 -14 -5 12 4 9 9 14 11 11 3 -2 0 -13 -6 -23z m-2094 -15 c-3 -8
-6 -5 -6 6 -1 11 2 17 5 13 3 -3 4 -12 1 -19z m2670 0 c-3 -8 -6 -5 -6 6 -1
11 2 17 5 13 3 -3 4 -12 1 -19z m-2047 -68 c6 -11 8 -20 6 -20 -3 0 -10 9 -16
20 -6 11 -8 20 -6 20 3 0 10 -9 16 -20z m1430 0 c-6 -11 -13 -20 -16 -20 -2 0
0 9 6 20 6 11 13 20 16 20 2 0 0 -9 -6 -20z m-1379 -77 c13 -16 12 -17 -3 -4
-10 7 -18 15 -18 17 0 8 8 3 21 -13z m1339 13 c0 -2 -8 -10 -17 -17 -16 -13
-17 -12 -4 4 13 16 21 21 21 13z m-1260 -101 c35 -36 62 -65 59 -65 -2 0 -34
29 -69 65 -35 36 -62 65 -59 65 2 0 34 -29 69 -65z m1230 62 c0 -1 -30 -32
-67 -67 l-68 -65 65 68 c60 62 70 72 70 64z m-1876 -94 c14 -29 24 -53 21 -53
-5 0 -55 95 -55 106 0 12 6 2 34 -53z m2462 -2 c-15 -28 -28 -51 -31 -51 -3 0
7 25 22 55 15 30 29 53 31 51 2 -2 -8 -27 -22 -55z m-1725 -48 c13 -16 12 -17
-3 -4 -10 7 -18 15 -18 17 0 8 8 3 21 -13z m999 13 c0 -2 -8 -10 -17 -17 -16
-13 -17 -12 -4 4 13 16 21 21 21 13z m-1680 -66 c6 -11 8 -20 6 -20 -3 0 -10
9 -16 20 -6 11 -8 20 -6 20 3 0 10 -9 16 -20z m770 -6 c0 -2 -9 0 -20 6 -11 6
-20 13 -20 16 0 2 9 0 20 -6 11 -6 20 -13 20 -16z m840 21 c0 -2 -10 -9 -22
-15 -22 -11 -22 -10 -4 4 21 17 26 19 26 11z m740 -15 c-6 -11 -13 -20 -16
-20 -2 0 0 9 6 20 6 11 13 20 16 20 2 0 0 -9 -6 -20z m-1500 -40 c8 -5 11 -10
5 -10 -5 0 -17 5 -25 10 -8 5 -10 10 -5 10 6 0 17 -5 25 -10z m-820 -46 c0
-32 -9 -46 -77 -113 l-77 -76 72 76 c62 66 72 82 72 113 0 20 2 36 5 36 3 0 5
-16 5 -36z m2361 -112 l64 -68 -72 72 c-67 65 -73 75 -72 110 l2 39 6 -43 c6
-35 20 -56 72 -110z m-1364 102 c-3 -3 -12 -4 -19 -1 -8 3 -5 6 6 6 11 1 17
-2 13 -5z m310 0 c-3 -3 -12 -4 -19 -1 -8 3 -5 6 6 6 11 1 17 -2 13 -5z m-219
-11 c-10 -2 -26 -2 -35 0 -10 3 -2 5 17 5 19 0 27 -2 18 -5z m140 0 c-10 -2
-26 -2 -35 0 -10 3 -2 5 17 5 19 0 27 -2 18 -5z m-1228 -318 c80 -80 142 -145
140 -145 -3 0 -70 65 -150 145 -80 80 -142 145 -140 145 3 0 70 -65 150 -145z
m2430 142 c0 -1 -66 -67 -147 -147 l-148 -145 145 148 c134 137 150 152 150
144z m-2103 -143 c-3 -3 -12 -4 -19 -1 -8 3 -5 6 6 6 11 1 17 -2 13 -5z m1650
0 c-3 -3 -12 -4 -19 -1 -8 3 -5 6 6 6 11 1 17 -2 13 -5z m-1401 -112 c-5 -4
-106 46 -106 53 0 3 25 -7 55 -22 30 -15 53 -29 51 -31z m1234 53 c0 -6 -97
-55 -107 -55 -4 1 17 14 47 30 61 32 60 32 60 25z m-150 -75 c-8 -5 -19 -10
-25 -10 -5 0 -3 5 5 10 8 5 20 10 25 10 6 0 3 -5 -5 -10z m-775 -80 c3 -6 -1
-7 -9 -4 -18 7 -21 14 -7 14 6 0 13 -4 16 -10z m535 6 c0 -2 -7 -7 -16 -10 -8
-3 -12 -2 -9 4 6 10 25 14 25 6z"/>
</g>
</svg>
