<?xml version="1.0" standalone="no"?>
<!DOCTYPE svg PUBLIC "-//W3C//DTD SVG 20010904//EN"
 "http://www.w3.org/TR/2001/REC-SVG-20010904/DTD/svg10.dtd">
<svg version="1.0" xmlns="http://www.w3.org/2000/svg"
 width="493.000000pt" height="149.000000pt" viewBox="0 0 493.000000 149.000000"
 preserveAspectRatio="xMidYMid meet">

<g transform="translate(0.000000,149.000000) scale(0.100000,-0.100000)"
fill="#000000" stroke="none">
<path d="M202 1306 l-37 -34 -3 -506 c-3 -552 -2 -556 54 -593 26 -17 61 -18
529 -18 275 0 512 3 527 8 15 4 37 22 50 40 l23 32 3 491 c3 544 2 551 -57
591 l-34 23 -509 0 -508 0 -38 -34z m360 -93 c9 -10 19 -29 23 -43 6 -20 3
-19 -17 10 -13 19 -30 35 -38 35 -8 0 -24 -23 -36 -53 -27 -68 -38 -79 -18
-16 18 53 40 84 59 84 7 0 19 -8 27 -17z m-1 -80 c13 -17 12 -17 -4 -4 -16 13
-22 13 -40 1 -20 -12 -21 -12 -8 3 17 22 35 21 52 0z m-68 -38 c-3 -9 -8 -14
-10 -11 -3 3 -2 9 2 15 9 16 15 13 8 -4z m95 -10 c-3 -3 -9 2 -12 12 -6 14 -5
15 5 6 7 -7 10 -15 7 -18z m12 -22 c-11 -17 -11 -17 -6 0 3 10 6 24 7 30 0 9
2 9 5 0 3 -7 0 -20 -6 -30z m-120 -8 c0 -5 -5 -3 -11 5 -10 13 -10 13 -6 0 10
-33 16 -64 11 -52 -3 6 -10 9 -15 6 -6 -3 -5 -11 2 -20 10 -12 9 -13 -5 -8
-16 6 -16 35 0 88 5 15 8 16 15 5 5 -8 9 -18 9 -24z m98 -5 l16 -25 -23 23
c-12 12 -30 22 -40 22 -10 0 -26 -10 -35 -22 -9 -13 -14 -16 -10 -8 22 48 66
52 92 10z m42 -14 c0 -8 -7 -16 -15 -20 -13 -4 -14 -2 -5 14 13 23 20 26 20 6z
m-80 -13 c-8 -3 -24 -10 -35 -15 -20 -9 -20 -9 -1 6 11 9 27 16 35 15 14 0 14
-1 1 -6z m41 -20 c13 -16 12 -17 -3 -4 -10 7 -18 15 -18 17 0 8 8 3 21 -13z
m58 -123 c7 -57 16 -111 21 -120 4 -8 10 -26 11 -40 5 -31 17 -41 38 -30 9 4
29 12 45 16 47 14 68 52 92 164 8 38 38 85 56 88 24 5 49 -39 69 -124 18 -77
54 -134 78 -126 8 3 11 0 7 -7 -5 -7 1 -11 14 -11 12 0 18 5 15 10 -3 6 -2 10
4 10 5 0 13 -4 16 -10 3 -5 1 -10 -4 -10 -6 0 -10 -5 -9 -12 2 -6 -6 -13 -17
-15 l-20 -3 20 10 c18 9 17 10 -7 7 -17 -3 -25 0 -21 6 4 6 0 8 -11 4 -9 -4
-15 -3 -12 1 2 4 1 14 -4 21 -5 9 -7 3 -7 -17 1 -17 6 -28 12 -24 5 3 5 -1 -2
-9 -7 -9 -8 -20 -3 -28 4 -8 6 -21 2 -29 -3 -10 -1 -13 6 -8 6 4 20 2 31 -3
14 -8 22 -6 35 8 18 20 22 41 4 23 -18 -18 -43 -14 -64 11 -19 22 -19 22 2 5
26 -23 40 -23 69 1 18 13 21 21 13 29 -8 8 -7 16 3 28 12 15 12 16 0 10 -9 -6
-12 -5 -9 5 6 18 60 33 92 25 24 -6 26 -10 21 -45 -4 -33 -2 -39 13 -36 9 2
19 4 21 4 2 1 -3 9 -12 19 -11 12 -13 22 -6 32 8 13 9 12 7 -2 -2 -9 2 -17 7
-16 6 0 9 4 7 10 -1 5 2 6 8 3 6 -4 9 -10 6 -13 -4 -3 3 -15 14 -28 l21 -21
-22 1 c-12 0 -24 -5 -27 -13 -3 -8 0 -11 6 -7 6 3 14 2 17 -4 4 -6 1 -9 -6 -8
-6 2 -14 -3 -17 -11 -3 -8 0 -11 7 -7 7 5 9 1 4 -10 -5 -12 -3 -15 6 -9 10 6
11 3 1 -14 -6 -12 -8 -31 -5 -41 10 -32 -2 -23 -14 10 -6 18 -6 28 -1 25 13
-8 12 6 0 25 -8 13 -10 13 -10 1 0 -8 -14 7 -30 33 -20 32 -36 46 -48 44 -9
-2 -32 -31 -50 -66 -18 -34 -38 -62 -45 -62 -28 1 -74 60 -62 80 3 6 2 10 -3
10 -5 0 -15 30 -22 67 -14 73 -49 179 -50 151 0 -10 -7 -18 -16 -18 -14 0 -14
3 -4 15 11 13 8 15 -14 15 -14 0 -28 0 -31 0 -3 0 -5 -3 -5 -7 0 -5 4 -8 9 -8
5 0 13 -3 17 -7 4 -5 0 -8 -9 -8 -26 0 -55 -47 -67 -108 -22 -109 -42 -171
-64 -191 -20 -19 -24 -19 -42 -6 -18 13 -18 14 5 8 17 -4 28 -1 37 12 20 27
17 37 -5 23 -17 -10 -24 -9 -42 7 l-22 20 7 -25 c6 -21 5 -22 -4 -7 -6 9 -8
22 -4 28 3 6 2 14 -3 18 -10 6 -51 192 -60 269 -3 23 -9 42 -15 42 -5 0 -6 -5
-2 -12 5 -7 3 -8 -5 -3 -9 5 -10 10 -2 18 14 14 14 30 1 22 -6 -3 -7 1 -4 9 3
9 10 13 15 10 5 -3 6 2 3 10 -3 9 -11 13 -16 10 -6 -4 -5 4 2 16 18 33 25 14
39 -110z m-184 74 c0 -10 4 -25 8 -32 7 -11 12 -11 25 1 10 8 24 17 32 22 8 4
-1 -6 -20 -23 -19 -17 -39 -31 -45 -31 -5 -1 -4 3 4 8 10 6 10 10 1 16 -18 11
-23 -1 -13 -32 8 -23 5 -34 -23 -70 -18 -24 -41 -68 -50 -98 -15 -48 -21 -54
-38 -50 -19 6 -20 5 -4 -8 16 -12 13 -22 -32 -125 -42 -98 -109 -227 -110
-212 0 3 25 55 55 115 56 113 63 131 44 119 -8 -5 -8 -1 0 14 14 27 14 35 -1
26 -7 -4 -8 -3 -4 5 4 6 12 9 17 6 5 -4 9 -2 9 3 0 17 -14 22 -30 10 -9 -7 -4
-1 11 14 15 14 25 29 21 32 -3 4 -31 -17 -61 -46 -31 -29 -40 -36 -21 -15 31
34 32 54 1 25 -11 -11 -12 -10 -5 2 5 8 9 18 9 22 0 3 4 10 9 15 5 5 6 2 1 -6
-5 -9 -3 -12 6 -9 8 3 14 10 14 16 0 7 5 13 10 14 6 0 16 8 23 17 10 14 11 14
7 1 -4 -11 1 -16 17 -17 13 0 18 1 11 4 -16 6 -6 32 28 68 17 19 34 55 44 95
21 80 23 90 24 113 1 25 26 16 26 -9z m121 10 c18 -14 18 -15 -5 -4 -13 7 -34
10 -47 7 -13 -2 -21 0 -18 4 8 14 49 10 70 -7z m-86 -20 c0 -8 -19 -13 -24 -6
-3 5 1 9 9 9 8 0 15 -2 15 -3z m586 -302 c-10 -2 -22 0 -28 6 -6 6 0 7 19 4
21 -5 23 -7 9 -10z m-816 -55 c0 -2 -17 -19 -37 -38 l-38 -34 34 38 c33 34 41
42 41 34z m0 -37 c-11 -16 -26 -33 -32 -36 -7 -4 1 9 16 29 34 44 46 50 16 7z
m1050 -10 c6 -11 8 -20 6 -20 -3 0 -10 9 -16 20 -6 11 -8 20 -6 20 3 0 10 -9
16 -20z m-1033 -7 c-18 -34 -81 -133 -84 -133 -5 0 -5 1 42 78 21 34 40 62 42
62 2 0 2 -3 0 -7z m-57 -37 c0 -2 -8 -10 -17 -17 -16 -13 -17 -12 -4 4 13 16
21 21 21 13z m1089 -76 c0 -10 -3 -8 -9 5 -12 27 -12 43 0 25 5 -8 9 -22 9
-30z"/>
<path d="M885 940 c-3 -5 -8 -19 -10 -30 -3 -17 0 -19 23 -15 20 4 18 2 -8 -8
l-35 -14 33 -8 c46 -10 58 5 31 40 l-22 28 21 -12 c26 -14 28 -9 6 13 -18 18
-30 20 -39 6z m32 -66 c-3 -3 -12 -4 -19 -1 -8 3 -5 6 6 6 11 1 17 -2 13 -5z"/>
<path d="M1166 698 c3 -5 10 -6 15 -3 13 9 11 12 -6 12 -8 0 -12 -4 -9 -9z"/>
<path d="M735 690 c-36 -6 -31 -25 7 -25 14 0 24 -4 21 -9 -4 -5 0 -6 8 -1 8
4 4 -3 -9 -16 -17 -18 -26 -21 -38 -14 -9 6 -16 15 -16 20 0 13 -18 35 -30 35
-5 0 -4 -9 2 -20 6 -11 8 -25 5 -30 -8 -14 33 -70 51 -70 8 0 17 7 21 16 5 13
8 13 15 2 6 -9 7 -5 3 11 -5 17 -4 22 5 16 9 -6 11 -4 6 4 -6 9 -12 9 -25 -3
-24 -21 -34 -20 -57 7 -19 22 -19 22 2 5 26 -23 30 -22 61 2 14 11 22 20 17
20 -5 0 -2 5 6 10 9 6 10 10 3 10 -6 0 -10 8 -8 18 3 20 -2 21 -50 12z m39 -8
c2 -4 -12 -8 -32 -9 -36 -1 -36 -1 -7 7 17 4 31 8 32 9 1 0 4 -3 7 -7z"/>
<path d="M1130 685 c-8 -9 -8 -15 0 -20 6 -3 7 -12 3 -18 -3 -7 3 -4 14 6 11
9 23 17 27 17 10 0 72 -51 69 -56 -2 -2 -3 -10 -3 -16 0 -9 3 -8 9 2 6 8 7 18
4 22 -7 13 18 39 31 31 6 -4 5 1 -3 10 -14 18 -26 24 -17 8 6 -10 -13 -28 -29
-26 -22 1 -33 16 -27 38 5 20 4 21 -12 8 -14 -12 -22 -12 -36 -3 -14 9 -21 8
-30 -3z m24 -16 c-3 -5 -10 -7 -15 -3 -5 3 -7 10 -3 15 3 5 10 7 15 3 5 -3 7
-10 3 -15z"/>
<path d="M715 640 c3 -5 12 -10 20 -10 8 0 17 5 20 10 4 6 -5 10 -20 10 -15 0
-24 -4 -20 -10z"/>
<path d="M1097 590 c-14 -17 -21 -19 -38 -9 -30 16 -38 0 -10 -22 27 -22 36
-19 56 22 18 34 16 37 -8 9z"/>
<path d="M275 672 c3 -3 -1 -12 -7 -21 -8 -10 -4 -9 10 3 26 23 26 23 7 23 -8
0 -13 -3 -10 -5z"/>
<path d="M320 639 c0 -5 -4 -7 -10 -4 -14 9 -12 -1 3 -13 10 -8 13 -6 14 9 1
10 0 19 -3 19 -2 0 -4 -5 -4 -11z"/>
<path d="M3891 1046 c-78 -26 -121 -85 -121 -168 0 -79 39 -125 145 -168 78
-32 85 -37 85 -60 0 -39 -61 -47 -195 -28 -17 3 -21 -4 -23 -36 -7 -86 10 -98
148 -97 116 0 187 44 210 133 27 97 -16 161 -142 213 -54 23 -74 36 -76 51 -5
37 23 48 114 46 l84 -1 0 54 c0 31 -5 57 -12 61 -23 15 -172 14 -217 0z"/>
<path d="M4595 1053 c-112 -24 -173 -91 -196 -213 -15 -87 1 -191 41 -253 40
-63 113 -98 207 -99 38 0 84 3 101 7 32 6 32 7 32 65 l0 59 -68 -6 c-118 -10
-162 33 -162 157 0 123 37 162 155 161 l75 -1 0 59 c0 58 -1 59 -31 65 -34 7
-122 6 -154 -1z"/>
<path d="M1520 770 l0 -281 68 3 67 3 5 162 5 162 45 -120 45 -120 60 3 60 3
23 65 c13 36 35 94 48 130 l23 65 1 -177 0 -178 70 0 70 0 0 280 0 280 -93 0
-93 0 -49 -142 c-26 -79 -51 -146 -55 -151 -3 -4 -31 60 -61 143 l-54 150 -92
0 -93 0 0 -280z"/>
<path d="M2136 1018 c9 -18 46 -87 83 -153 l66 -120 5 -125 5 -125 73 -3 72
-3 0 115 0 116 85 158 c47 88 85 162 85 165 0 4 -30 7 -68 7 l-67 0 -52 -97
-51 -97 -48 97 -49 97 -78 0 -78 0 17 -32z"/>
<path d="M2630 770 l0 -280 70 0 70 0 2 163 3 162 44 -118 44 -118 60 3 61 3
47 130 48 130 1 -177 0 -178 70 0 70 0 0 280 0 280 -94 0 -94 0 -52 -150 c-29
-83 -55 -149 -57 -146 -3 2 -28 69 -57 148 l-53 143 -91 3 -92 3 0 -281z"/>
<path d="M3282 843 c5 -221 10 -248 56 -297 40 -42 82 -56 170 -56 105 0 156
25 192 95 24 47 25 58 29 257 l3 208 -76 0 -76 0 0 -200 c0 -187 -1 -201 -20
-220 -30 -30 -83 -27 -109 6 -20 25 -21 40 -21 220 l0 194 -76 0 -76 0 4 -207z"/>
<path d="M4190 770 l0 -280 75 0 75 0 0 280 0 280 -75 0 -75 0 0 -280z"/>
</g>
</svg>
